<svg xmlns="http://www.w3.org/2000/svg" viewBox="0 0 800 240" width="800" height="240">
  <defs>
    <linearGradient id="bg4" x1="0%" y1="0%" x2="100%" y2="100%">
      <stop offset="0%" style="stop-color:#120608"/>
      <stop offset="50%" style="stop-color:#200B0B"/>
      <stop offset="100%" style="stop-color:#2D1408"/>
    </linearGradient>
    <linearGradient id="gold4" x1="0%" y1="0%" x2="100%" y2="0%">
      <stop offset="0%" style="stop-color:#8B6914"/>
      <stop offset="50%" style="stop-color:#D4A017"/>
      <stop offset="100%" style="stop-color:#F5C842"/>
    </linearGradient>
    <radialGradient id="glow4" cx="75%" cy="50%" r="40%">
      <stop offset="0%" style="stop-color:#D4A017;stop-opacity:0.18"/>
      <stop offset="100%" style="stop-color:#D4A017;stop-opacity:0"/>
    </radialGradient>
  </defs>
  <rect width="800" height="240" fill="url(#bg4)"/>
  <ellipse cx="600" cy="120" rx="220" ry="130" fill="url(#glow4)"/>
  <!-- Gift box SVG art -->
  <g transform="translate(620,115)" opacity="0.85">
    <!-- Box body -->
    <rect x="-55" y="-30" width="110" height="80" rx="5" fill="#1E0A0A" stroke="#D4A017" stroke-width="2"/>
    <!-- Box lid -->
    <rect x="-62" y="-54" width="124" height="28" rx="4" fill="#2D1408" stroke="#D4A017" stroke-width="2"/>
    <!-- Ribbon vertical -->
    <rect x="-8" y="-54" width="16" height="108" rx="3" fill="#D4A017" opacity="0.7"/>
    <!-- Ribbon horizontal on lid -->
    <rect x="-62" y="-44" width="124" height="12" rx="3" fill="#D4A017" opacity="0.7"/>
    <!-- Bow -->
    <ellipse cx="-22" cy="-56" rx="20" ry="10" fill="#D4A017" opacity="0.9" transform="rotate(-20)"/>
    <ellipse cx="22" cy="-56" rx="20" ry="10" fill="#D4A017" opacity="0.9" transform="rotate(20)"/>
    <circle cx="0" cy="-56" r="8" fill="#F5C842"/>
    <!-- Stars around box -->
    <text x="-80" y="-40" font-size="14" fill="#D4A017" opacity="0.6">✦</text>
    <text x="75" y="-20" font-size="10" fill="#D4A017" opacity="0.5">✦</text>
    <text x="-85" y="40" font-size="8" fill="#D4A017" opacity="0.4">✦</text>
  </g>
  <!-- Borders -->
  <rect x="0" y="0" width="800" height="2" fill="url(#gold4)" opacity="0.5"/>
  <rect x="0" y="238" width="800" height="2" fill="url(#gold4)" opacity="0.5"/>
  <path d="M10,10 L10,45 M10,10 L45,10" stroke="#D4A017" stroke-width="2" fill="none" stroke-linecap="round"/>
  <path d="M790,10 L790,45 M790,10 L755,10" stroke="#D4A017" stroke-width="2" fill="none" stroke-linecap="round"/>
  <path d="M10,230 L10,195 M10,230 L45,230" stroke="#D4A017" stroke-width="2" fill="none" stroke-linecap="round"/>
  <path d="M790,230 L790,195 M790,230 L755,230" stroke="#D4A017" stroke-width="2" fill="none" stroke-linecap="round"/>
  <!-- Text left side -->
  <text x="50" y="80" font-family="Arial, sans-serif" font-size="14" fill="#D4A017" opacity="0.6" letter-spacing="4">SPECIAL OFFER</text>
  <text x="50" y="125" font-family="Georgia, serif" font-size="38" font-weight="900" fill="url(#gold4)" letter-spacing="2">GIFT CARD</text>
  <line x1="50" y1="138" x2="430" y2="138" stroke="#D4A017" stroke-width="0.7" opacity="0.35"/>
  <text x="50" y="163" font-family="Arial, sans-serif" font-size="19" font-weight="700" fill="#FDF6E3">Uphar Card Redeem Karein</text>
  <text x="50" y="190" font-family="Arial, sans-serif" font-size="13" fill="#1A9B5C" letter-spacing="1">Instant Balance Credit • No Expiry</text>
  <text x="50" y="215" font-family="Arial, sans-serif" font-size="11" fill="#D4A017" opacity="0.6" letter-spacing="2">ACCOUNT → GIFT CARD</text>
</svg>
