<svg xmlns="http://www.w3.org/2000/svg" viewBox="0 0 800 240" width="800" height="240">
  <defs>
    <linearGradient id="bg3" x1="0%" y1="0%" x2="100%" y2="100%">
      <stop offset="0%" style="stop-color:#0A1520"/>
      <stop offset="60%" style="stop-color:#0E1A2A"/>
      <stop offset="100%" style="stop-color:#1E0A0A"/>
    </linearGradient>
    <linearGradient id="gold3" x1="0%" y1="0%" x2="100%" y2="0%">
      <stop offset="0%" style="stop-color:#8B6914"/>
      <stop offset="50%" style="stop-color:#D4A017"/>
      <stop offset="100%" style="stop-color:#F5C842"/>
    </linearGradient>
    <radialGradient id="glow3" cx="30%" cy="50%" r="50%">
      <stop offset="0%" style="stop-color:#D4A017;stop-opacity:0.12"/>
      <stop offset="100%" style="stop-color:#D4A017;stop-opacity:0"/>
    </radialGradient>
  </defs>
  <rect width="800" height="240" fill="url(#bg3)"/>
  <ellipse cx="250" cy="120" rx="200" ry="130" fill="url(#glow3)"/>
  <!-- Peacock feathers left -->
  <g transform="translate(100,120)" opacity="0.3">
    <ellipse cx="0" cy="-60" rx="12" ry="55" fill="#1A9B5C" transform="rotate(-20)"/>
    <ellipse cx="0" cy="-60" rx="12" ry="55" fill="#D4A017" transform="rotate(0)"/>
    <ellipse cx="0" cy="-60" rx="12" ry="55" fill="#1A9B5C" transform="rotate(20)"/>
    <circle cx="0" cy="-55" r="8" fill="#D4A017" opacity="0.6"/>
    <circle cx="0" cy="-55" r="4" fill="#120608" opacity="0.8"/>
  </g>
  <!-- Borders -->
  <rect x="0" y="0" width="800" height="2" fill="url(#gold3)" opacity="0.5"/>
  <rect x="0" y="238" width="800" height="2" fill="url(#gold3)" opacity="0.5"/>
  <path d="M10,10 L10,45 M10,10 L45,10" stroke="#D4A017" stroke-width="2" fill="none" stroke-linecap="round"/>
  <path d="M790,10 L790,45 M790,10 L755,10" stroke="#D4A017" stroke-width="2" fill="none" stroke-linecap="round"/>
  <path d="M10,230 L10,195 M10,230 L45,230" stroke="#D4A017" stroke-width="2" fill="none" stroke-linecap="round"/>
  <path d="M790,230 L790,195 M790,230 L755,230" stroke="#D4A017" stroke-width="2" fill="none" stroke-linecap="round"/>
  <!-- Two user icons -->
  <g transform="translate(550,100)" opacity="0.7">
    <circle cx="-35" cy="-15" r="20" fill="#D4A017" opacity="0.2" stroke="#D4A017" stroke-width="1.5"/>
    <text x="-35" y="-8" font-size="22" text-anchor="middle">👤</text>
    <text x="15" y="-3" font-family="Arial" font-size="20" fill="#D4A017">→</text>
    <circle cx="65" cy="-15" r="20" fill="#1A9B5C" opacity="0.2" stroke="#1A9B5C" stroke-width="1.5"/>
    <text x="65" y="-8" font-size="22" text-anchor="middle">👤</text>
    <!-- Bonus badge -->
    <rect x="-25" y="15" width="120" height="26" rx="13" fill="#D4A017" opacity="0.9"/>
    <text x="35" y="33" font-family="Arial" font-size="12" font-weight="bold" text-anchor="middle" fill="#1a0800">+₹50 BONUS</text>
  </g>
  <!-- Main text -->
  <text x="270" y="90" font-family="Georgia, serif" font-size="36" font-weight="900" text-anchor="middle" fill="url(#gold3)" letter-spacing="3">REFER KARO</text>
  <line x1="80" y1="104" x2="460" y2="104" stroke="#D4A017" stroke-width="0.7" opacity="0.3"/>
  <text x="270" y="136" font-family="Arial, sans-serif" font-size="19" font-weight="700" text-anchor="middle" fill="#FDF6E3">Dost Ko Bulao, Dono Kamao</text>
  <text x="270" y="162" font-family="Arial, sans-serif" font-size="13" text-anchor="middle" fill="#1A9B5C" letter-spacing="1">Har Referral Par ₹50 Instant Bonus</text>
  <text x="270" y="190" font-family="Arial, sans-serif" font-size="11" text-anchor="middle" fill="#D4A017" opacity="0.6" letter-spacing="2">ACCOUNT → REFERRAL CODE</text>
  <text x="400" y="220" font-family="Arial" font-size="10" text-anchor="middle" fill="#D4A017" opacity="0.3" letter-spacing="8">◆ ◆ ◆ ◆ ◆</text>
</svg>
