<svg xmlns="http://www.w3.org/2000/svg" viewBox="0 0 800 240" width="800" height="240">
  <defs>
    <linearGradient id="bg2" x1="0%" y1="0%" x2="100%" y2="100%">
      <stop offset="0%" style="stop-color:#0A1A0E"/>
      <stop offset="50%" style="stop-color:#0D2211"/>
      <stop offset="100%" style="stop-color:#1A0A0A"/>
    </linearGradient>
    <linearGradient id="gold2" x1="0%" y1="0%" x2="100%" y2="0%">
      <stop offset="0%" style="stop-color:#8B6914"/>
      <stop offset="50%" style="stop-color:#D4A017"/>
      <stop offset="100%" style="stop-color:#F5C842"/>
    </linearGradient>
    <linearGradient id="emerald" x1="0%" y1="0%" x2="100%" y2="0%">
      <stop offset="0%" style="stop-color:#0A5C32"/>
      <stop offset="100%" style="stop-color:#1A9B5C"/>
    </linearGradient>
    <radialGradient id="glow2" cx="50%" cy="50%" r="50%">
      <stop offset="0%" style="stop-color:#1A9B5C;stop-opacity:0.2"/>
      <stop offset="100%" style="stop-color:#1A9B5C;stop-opacity:0"/>
    </radialGradient>
  </defs>
  <rect width="800" height="240" fill="url(#bg2)"/>
  <ellipse cx="400" cy="120" rx="280" ry="130" fill="url(#glow2)"/>
  <!-- Coin rain -->
  <g opacity="0.25">
    <circle cx="100" cy="40" r="15" fill="#D4A017"/><text x="100" y="46" font-size="12" text-anchor="middle" fill="#1a0800" font-weight="bold">₹</text>
    <circle cx="180" cy="80" r="10" fill="#D4A017"/><text x="180" y="85" font-size="8" text-anchor="middle" fill="#1a0800" font-weight="bold">₹</text>
    <circle cx="650" cy="50" r="13" fill="#D4A017"/><text x="650" y="56" font-size="10" text-anchor="middle" fill="#1a0800" font-weight="bold">₹</text>
    <circle cx="720" cy="85" r="18" fill="#D4A017"/><text x="720" y="92" font-size="14" text-anchor="middle" fill="#1a0800" font-weight="bold">₹</text>
    <circle cx="60" cy="170" r="12" fill="#D4A017"/><text x="60" y="176" font-size="9" text-anchor="middle" fill="#1a0800" font-weight="bold">₹</text>
    <circle cx="740" cy="190" r="10" fill="#D4A017"/>
  </g>
  <!-- Borders -->
  <rect x="0" y="0" width="800" height="2" fill="url(#gold2)" opacity="0.6"/>
  <rect x="0" y="238" width="800" height="2" fill="url(#gold2)" opacity="0.6"/>
  <!-- Corners -->
  <path d="M10,10 L10,45 M10,10 L45,10" stroke="#D4A017" stroke-width="2" fill="none" stroke-linecap="round"/>
  <path d="M790,10 L790,45 M790,10 L755,10" stroke="#D4A017" stroke-width="2" fill="none" stroke-linecap="round"/>
  <path d="M10,230 L10,195 M10,230 L45,230" stroke="#D4A017" stroke-width="2" fill="none" stroke-linecap="round"/>
  <path d="M790,230 L790,195 M790,230 L755,230" stroke="#D4A017" stroke-width="2" fill="none" stroke-linecap="round"/>
  <!-- Crown -->
  <g transform="translate(400,55)" opacity="0.85">
    <polygon points="-30,20 -30,-5 -15,10 0,-15 15,10 30,-5 30,20" fill="url(#gold2)" stroke="#F5C842" stroke-width="1"/>
    <circle cx="-30" cy="-5" r="4" fill="#FFF"/>
    <circle cx="0" cy="-15" r="5" fill="#E74C3C"/>
    <circle cx="30" cy="-5" r="4" fill="#FFF"/>
  </g>
  <text x="400" y="100" font-family="Georgia, serif" font-size="38" font-weight="900" text-anchor="middle" fill="url(#gold2)" letter-spacing="3">DAILY JEETO</text>
  <rect x="160" y="110" width="480" height="2" fill="url(#emerald)" opacity="0.5" rx="1"/>
  <text x="400" y="145" font-family="Arial, sans-serif" font-size="20" font-weight="700" text-anchor="middle" fill="#1A9B5C" letter-spacing="1">Rozana ₹10,000 Tak Jeet Sakte Ho!</text>
  <text x="400" y="174" font-family="Arial, sans-serif" font-size="13" text-anchor="middle" fill="#FDF6E3" opacity="0.7" letter-spacing="2">COLOUR PREDICTION GAME</text>
  <text x="400" y="210" font-family="Arial" font-size="10" text-anchor="middle" fill="#D4A017" opacity="0.35" letter-spacing="8">◆ ◆ ◆ ◆ ◆</text>
</svg>
