<svg xmlns="http://www.w3.org/2000/svg" viewBox="0 0 800 240" width="800" height="240">
  <defs>
    <linearGradient id="bg7" x1="0%" y1="0%" x2="100%" y2="100%">
      <stop offset="0%" style="stop-color:#1A0A0A"/>
      <stop offset="50%" style="stop-color:#2D1408"/>
      <stop offset="100%" style="stop-color:#120608"/>
    </linearGradient>
    <linearGradient id="gold7" x1="0%" y1="0%" x2="100%" y2="0%">
      <stop offset="0%" style="stop-color:#8B6914"/>
      <stop offset="50%" style="stop-color:#D4A017"/>
      <stop offset="100%" style="stop-color:#F5C842"/>
    </linearGradient>
    <radialGradient id="glow7" cx="75%" cy="50%" r="45%">
      <stop offset="0%" style="stop-color:#D4A017;stop-opacity:0.16"/>
      <stop offset="100%" style="stop-color:#D4A017;stop-opacity:0"/>
    </radialGradient>
  </defs>
  <rect width="800" height="240" fill="url(#bg7)"/>
  <ellipse cx="610" cy="120" rx="240" ry="140" fill="url(#glow7)"/>
  <!-- Wallet illustration -->
  <g transform="translate(620,110)" opacity="0.85">
    <!-- Wallet body -->
    <rect x="-70" y="-45" width="140" height="90" rx="10" fill="#2D1408" stroke="#D4A017" stroke-width="2"/>
    <!-- Wallet flap -->
    <rect x="-70" y="-45" width="140" height="35" rx="10" fill="#3D1A00" stroke="#D4A017" stroke-width="1.5"/>
    <!-- Card slot -->
    <rect x="-50" y="-35" width="60" height="18" rx="4" fill="#D4A017" opacity="0.25" stroke="#D4A017" stroke-width="0.7"/>
    <!-- Coin -->
    <circle cx="40" cy="-16" r="14" fill="#D4A017" opacity="0.8" stroke="#F5C842" stroke-width="1"/>
    <text x="40" y="-10" font-size="14" text-anchor="middle" fill="#1a0800" font-weight="bold" font-family="Arial">₹</text>
    <!-- Bills -->
    <rect x="-55" y="5" width="90" height="8" rx="3" fill="#1A9B5C" opacity="0.4"/>
    <rect x="-55" y="18" width="75" height="8" rx="3" fill="#1A9B5C" opacity="0.3"/>
    <rect x="-55" y="31" width="60" height="8" rx="3" fill="#1A9B5C" opacity="0.2"/>
  </g>
  <!-- Borders -->
  <rect x="0" y="0" width="800" height="2" fill="url(#gold7)" opacity="0.5"/>
  <rect x="0" y="238" width="800" height="2" fill="url(#gold7)" opacity="0.5"/>
  <path d="M10,10 L10,45 M10,10 L45,10" stroke="#D4A017" stroke-width="2" fill="none" stroke-linecap="round"/>
  <path d="M790,10 L790,45 M790,10 L755,10" stroke="#D4A017" stroke-width="2" fill="none" stroke-linecap="round"/>
  <path d="M10,230 L10,195 M10,230 L45,230" stroke="#D4A017" stroke-width="2" fill="none" stroke-linecap="round"/>
  <path d="M790,230 L790,195 M790,230 L755,230" stroke="#D4A017" stroke-width="2" fill="none" stroke-linecap="round"/>
  <text x="50" y="78" font-family="Arial, sans-serif" font-size="13" fill="#D4A017" opacity="0.6" letter-spacing="4">FIRST DEPOSIT</text>
  <text x="50" y="120" font-family="Georgia, serif" font-size="36" font-weight="900" fill="url(#gold7)" letter-spacing="2">PEHLI JAMA</text>
  <line x1="50" y1="132" x2="430" y2="132" stroke="#D4A017" stroke-width="0.7" opacity="0.35"/>
  <text x="50" y="158" font-family="Arial, sans-serif" font-size="19" font-weight="700" fill="#FDF6E3">100% Bonus Pehle Deposit Par!</text>
  <text x="50" y="183" font-family="Arial, sans-serif" font-size="13" fill="#1A9B5C" letter-spacing="1">Min ₹100 • Max Bonus ₹5,000</text>
  <rect x="50" y="200" width="160" height="28" rx="14" fill="#D4A017" opacity="0.9"/>
  <text x="130" y="219" font-family="Arial, sans-serif" font-size="12" font-weight="bold" text-anchor="middle" fill="#1a0800">ABHI DAALEIN ✦</text>
</svg>
