<svg xmlns="http://www.w3.org/2000/svg" viewBox="0 0 800 240" width="800" height="240">
  <defs>
    <linearGradient id="bg6" x1="0%" y1="0%" x2="100%" y2="100%">
      <stop offset="0%" style="stop-color:#100818"/>
      <stop offset="50%" style="stop-color:#1A0D2A"/>
      <stop offset="100%" style="stop-color:#1E0A0A"/>
    </linearGradient>
    <linearGradient id="gold6" x1="0%" y1="0%" x2="100%" y2="0%">
      <stop offset="0%" style="stop-color:#8B6914"/>
      <stop offset="50%" style="stop-color:#D4A017"/>
      <stop offset="100%" style="stop-color:#F5C842"/>
    </linearGradient>
    <radialGradient id="glow6" cx="50%" cy="50%" r="50%">
      <stop offset="0%" style="stop-color:#D4A017;stop-opacity:0.1"/>
      <stop offset="100%" style="stop-color:#D4A017;stop-opacity:0"/>
    </radialGradient>
  </defs>
  <rect width="800" height="240" fill="url(#bg6)"/>
  <ellipse cx="400" cy="120" rx="350" ry="130" fill="url(#glow6)"/>
  <!-- VIP levels progress -->
  <g transform="translate(400,185)" opacity="0.75">
    <rect x="-200" y="0" width="400" height="12" rx="6" fill="#1E0A0A" stroke="#D4A017" stroke-width="1" opacity="0.5"/>
    <rect x="-200" y="0" width="260" height="12" rx="6" fill="url(#gold6)" opacity="0.7"/>
    <circle cx="-200" cy="6" r="8" fill="#D4A017" opacity="0.4"/><text x="-200" y="10" font-size="8" text-anchor="middle" fill="#1a0800" font-weight="bold">1</text>
    <circle cx="-100" cy="6" r="8" fill="#D4A017" opacity="0.6"/><text x="-100" y="10" font-size="8" text-anchor="middle" fill="#1a0800" font-weight="bold">2</text>
    <circle cx="0" cy="6" r="8" fill="#D4A017" opacity="0.8"/><text x="0" y="10" font-size="8" text-anchor="middle" fill="#1a0800" font-weight="bold">3</text>
    <circle cx="60" cy="6" r="8" fill="#D4A017" opacity="0.5" stroke="#F5C842" stroke-width="1.5"/>
    <circle cx="200" cy="6" r="8" fill="#2D1408" stroke="#D4A017" stroke-width="1" opacity="0.4"/>
  </g>
  <!-- Crown icon -->
  <g transform="translate(400,65)" opacity="0.9">
    <polygon points="-35,25 -35,-8 -18,12 0,-20 18,12 35,-8 35,25" fill="url(#gold6)" stroke="#F5C842" stroke-width="1.5"/>
    <rect x="-35" y="25" width="70" height="8" rx="4" fill="#D4A017" opacity="0.7"/>
    <circle cx="-35" cy="-8" r="5" fill="#FFF" opacity="0.8"/>
    <circle cx="0" cy="-20" r="6" fill="#E74C3C" opacity="0.9"/>
    <circle cx="35" cy="-8" r="5" fill="#FFF" opacity="0.8"/>
  </g>
  <!-- Borders -->
  <rect x="0" y="0" width="800" height="2" fill="url(#gold6)" opacity="0.5"/>
  <rect x="0" y="238" width="800" height="2" fill="url(#gold6)" opacity="0.5"/>
  <path d="M10,10 L10,45 M10,10 L45,10" stroke="#D4A017" stroke-width="2" fill="none" stroke-linecap="round"/>
  <path d="M790,10 L790,45 M790,10 L755,10" stroke="#D4A017" stroke-width="2" fill="none" stroke-linecap="round"/>
  <path d="M10,230 L10,195 M10,230 L45,230" stroke="#D4A017" stroke-width="2" fill="none" stroke-linecap="round"/>
  <path d="M790,230 L790,195 M790,230 L755,230" stroke="#D4A017" stroke-width="2" fill="none" stroke-linecap="round"/>
  <text x="400" y="115" font-family="Georgia, serif" font-size="38" font-weight="900" text-anchor="middle" fill="url(#gold6)" letter-spacing="4">VIP CLUB</text>
  <line x1="180" y1="126" x2="620" y2="126" stroke="#D4A017" stroke-width="0.7" opacity="0.35"/>
  <text x="400" y="153" font-family="Arial, sans-serif" font-size="18" font-weight="700" text-anchor="middle" fill="#FDF6E3">Exclusive Rewards • Higher Payouts</text>
  <text x="400" y="175" font-family="Arial, sans-serif" font-size="13" text-anchor="middle" fill="#D4A017" opacity="0.7" letter-spacing="1">5 VIP Levels • Unlock Special Privileges</text>
</svg>
