<svg xmlns="http://www.w3.org/2000/svg" viewBox="0 0 800 240" width="800" height="240">
  <defs>
    <linearGradient id="bg5" x1="0%" y1="0%" x2="100%" y2="100%">
      <stop offset="0%" style="stop-color:#0A1E16"/>
      <stop offset="50%" style="stop-color:#061810"/>
      <stop offset="100%" style="stop-color:#1E0A0A"/>
    </linearGradient>
    <linearGradient id="gold5" x1="0%" y1="0%" x2="100%" y2="0%">
      <stop offset="0%" style="stop-color:#8B6914"/>
      <stop offset="50%" style="stop-color:#D4A017"/>
      <stop offset="100%" style="stop-color:#F5C842"/>
    </linearGradient>
    <radialGradient id="glow5" cx="50%" cy="50%" r="50%">
      <stop offset="0%" style="stop-color:#1A9B5C;stop-opacity:0.18"/>
      <stop offset="100%" style="stop-color:#1A9B5C;stop-opacity:0"/>
    </radialGradient>
  </defs>
  <rect width="800" height="240" fill="url(#bg5)"/>
  <ellipse cx="400" cy="120" rx="300" ry="140" fill="url(#glow5)"/>
  <!-- Lightning bolt + rupee symbols -->
  <g opacity="0.25">
    <text x="50" y="130" font-size="50" fill="#D4A017">⚡</text>
    <text x="700" y="130" font-size="50" fill="#D4A017">⚡</text>
  </g>
  <!-- Borders -->
  <rect x="0" y="0" width="800" height="2" fill="url(#gold5)" opacity="0.5"/>
  <rect x="0" y="238" width="800" height="2" fill="url(#gold5)" opacity="0.5"/>
  <path d="M10,10 L10,45 M10,10 L45,10" stroke="#D4A017" stroke-width="2" fill="none" stroke-linecap="round"/>
  <path d="M790,10 L790,45 M790,10 L755,10" stroke="#D4A017" stroke-width="2" fill="none" stroke-linecap="round"/>
  <path d="M10,230 L10,195 M10,230 L45,230" stroke="#D4A017" stroke-width="2" fill="none" stroke-linecap="round"/>
  <path d="M790,230 L790,195 M790,230 L755,230" stroke="#D4A017" stroke-width="2" fill="none" stroke-linecap="round"/>
  <!-- Upward arrow representing withdrawal -->
  <g transform="translate(400,55)" opacity="0.8">
    <circle r="30" fill="none" stroke="#1A9B5C" stroke-width="2"/>
    <polyline points="0,15 0,-10 -12,2" stroke="#1A9B5C" stroke-width="3" fill="none" stroke-linecap="round"/>
    <polyline points="0,-10 12,2" stroke="#1A9B5C" stroke-width="3" fill="none" stroke-linecap="round"/>
  </g>
  <text x="400" y="112" font-family="Georgia, serif" font-size="36" font-weight="900" text-anchor="middle" fill="url(#gold5)" letter-spacing="3">TURANT NIKALEIN</text>
  <line x1="150" y1="124" x2="650" y2="124" stroke="#D4A017" stroke-width="0.7" opacity="0.3"/>
  <text x="400" y="152" font-family="Arial, sans-serif" font-size="18" font-weight="700" text-anchor="middle" fill="#FDF6E3">Instant Withdrawal • Koi Rokawat Nahi</text>
  <text x="400" y="178" font-family="Arial, sans-serif" font-size="13" text-anchor="middle" fill="#1A9B5C" letter-spacing="1">UPI • Bank Transfer • 24/7 Available</text>
  <text x="400" y="210" font-family="Arial" font-size="10" text-anchor="middle" fill="#D4A017" opacity="0.3" letter-spacing="8">◆ ◆ ◆ ◆ ◆</text>
</svg>
