<svg xmlns="http://www.w3.org/2000/svg" viewBox="0 0 800 240" width="800" height="240">
  <defs>
    <linearGradient id="bg8" x1="0%" y1="0%" x2="100%" y2="100%">
      <stop offset="0%" style="stop-color:#0A0F1A"/>
      <stop offset="60%" style="stop-color:#101520"/>
      <stop offset="100%" style="stop-color:#1a0608"/>
    </linearGradient>
    <linearGradient id="gold8" x1="0%" y1="0%" x2="100%" y2="0%">
      <stop offset="0%" style="stop-color:#8B6914"/>
      <stop offset="50%" style="stop-color:#D4A017"/>
      <stop offset="100%" style="stop-color:#F5C842"/>
    </linearGradient>
    <radialGradient id="glow8" cx="50%" cy="50%" r="50%">
      <stop offset="0%" style="stop-color:#D4A017;stop-opacity:0.08"/>
      <stop offset="100%" style="stop-color:#D4A017;stop-opacity:0"/>
    </radialGradient>
  </defs>
  <rect width="800" height="240" fill="url(#bg8)"/>
  <ellipse cx="400" cy="120" rx="350" ry="140" fill="url(#glow8)"/>
  <!-- How to play steps -->
  <g transform="translate(130,110)" opacity="0.85">
    <circle r="25" fill="#1E0A0A" stroke="#D4A017" stroke-width="2"/><text x="0" y="8" font-size="18" font-weight="bold" text-anchor="middle" fill="#D4A017" font-family="Georgia">1</text>
    <text x="0" y="38" font-size="9" text-anchor="middle" fill="#FDF6E3" opacity="0.7" font-family="Arial">Register</text>
  </g>
  <line x1="165" y1="110" x2="235" y2="110" stroke="#D4A017" stroke-width="1.5" opacity="0.4" stroke-dasharray="4,3"/>
  <g transform="translate(265,110)" opacity="0.85">
    <circle r="25" fill="#1E0A0A" stroke="#D4A017" stroke-width="2"/><text x="0" y="8" font-size="18" font-weight="bold" text-anchor="middle" fill="#D4A017" font-family="Georgia">2</text>
    <text x="0" y="38" font-size="9" text-anchor="middle" fill="#FDF6E3" opacity="0.7" font-family="Arial">Deposit</text>
  </g>
  <line x1="300" y1="110" x2="370" y2="110" stroke="#D4A017" stroke-width="1.5" opacity="0.4" stroke-dasharray="4,3"/>
  <g transform="translate(400,110)" opacity="0.85">
    <circle r="25" fill="#1E0A0A" stroke="#D4A017" stroke-width="2"/><text x="0" y="8" font-size="18" font-weight="bold" text-anchor="middle" fill="#D4A017" font-family="Georgia">3</text>
    <text x="0" y="38" font-size="9" text-anchor="middle" fill="#FDF6E3" opacity="0.7" font-family="Arial">Bet Color</text>
  </g>
  <line x1="434" y1="110" x2="504" y2="110" stroke="#D4A017" stroke-width="1.5" opacity="0.4" stroke-dasharray="4,3"/>
  <g transform="translate(535,110)" opacity="0.85">
    <circle r="25" fill="#1A9B5C" stroke="#1A9B5C" stroke-width="2"/><text x="0" y="8" font-size="18" font-weight="bold" text-anchor="middle" fill="#FDF6E3" font-family="Georgia">4</text>
    <text x="0" y="38" font-size="9" text-anchor="middle" fill="#1A9B5C" font-family="Arial" font-weight="bold">WIN!</text>
  </g>
  <!-- Color buttons preview -->
  <g transform="translate(670,105)">
    <circle cx="-30" cy="0" r="16" fill="#E74C3C" opacity="0.8"/><text x="-30" y="5" font-size="10" text-anchor="middle" fill="white" font-family="Arial" font-weight="bold">R</text>
    <circle cx="0" cy="0" r="16" fill="#3C8527" opacity="0.8"/><text x="0" y="5" font-size="10" text-anchor="middle" fill="white" font-family="Arial" font-weight="bold">G</text>
    <circle cx="30" cy="0" r="16" fill="#4A148C" opacity="0.8"/><text x="30" y="5" font-size="10" text-anchor="middle" fill="white" font-family="Arial" font-weight="bold">V</text>
  </g>
  <!-- Borders -->
  <rect x="0" y="0" width="800" height="2" fill="url(#gold8)" opacity="0.5"/>
  <rect x="0" y="238" width="800" height="2" fill="url(#gold8)" opacity="0.5"/>
  <path d="M10,10 L10,45 M10,10 L45,10" stroke="#D4A017" stroke-width="2" fill="none" stroke-linecap="round"/>
  <path d="M790,10 L790,45 M790,10 L755,10" stroke="#D4A017" stroke-width="2" fill="none" stroke-linecap="round"/>
  <path d="M10,230 L10,195 M10,230 L45,230" stroke="#D4A017" stroke-width="2" fill="none" stroke-linecap="round"/>
  <path d="M790,230 L790,195 M790,230 L755,230" stroke="#D4A017" stroke-width="2" fill="none" stroke-linecap="round"/>
  <text x="400" y="40" font-family="Georgia, serif" font-size="30" font-weight="900" text-anchor="middle" fill="url(#gold8)" letter-spacing="3">KAISE KHELEIN?</text>
  <line x1="150" y1="52" x2="650" y2="52" stroke="#D4A017" stroke-width="0.7" opacity="0.3"/>
  <text x="400" y="68" font-family="Arial, sans-serif" font-size="13" text-anchor="middle" fill="#FDF6E3" opacity="0.6">Colour Select Karo • Number Guess Karo • Jeeto!</text>
  <text x="400" y="215" font-family="Arial" font-size="10" text-anchor="middle" fill="#D4A017" opacity="0.3" letter-spacing="8">◆ ◆ ◆ ◆ ◆</text>
</svg>
